<?xml version="1.0" standalone="no"?>
<!DOCTYPE svg PUBLIC "-//W3C//DTD SVG 20010904//EN"
 "http://www.w3.org/TR/2001/REC-SVG-20010904/DTD/svg10.dtd">
<svg version="1.0" xmlns="http://www.w3.org/2000/svg"
 width="200.000000pt" height="200.000000pt" viewBox="0 0 200.000000 200.000000"
 preserveAspectRatio="xMidYMid meet">
<metadata>
Created by potrace 1.11, written by Peter Selinger 2001-2013
</metadata>
<g transform="translate(0.000000,200.000000) scale(0.100000,-0.100000)"
fill="#000000" stroke="none">
<path d="M899 1799 c-165 -23 -320 -121 -413 -260 -148 -223 -118 -536 69
-725 314 -316 837 -193 976 231 34 104 32 251 -5 359 -91 265 -357 432 -627
395z"/>
<path d="M120 439 c0 -12 -4 -17 -11 -13 -8 4 -9 -12 -3 -57 4 -35 7 -77 6
-94 -2 -44 5 -60 21 -46 8 6 13 30 12 56 l-1 45 43 0 c37 0 43 3 43 21 0 17
-6 20 -32 19 -54 -3 -58 -1 -58 29 0 29 0 29 48 24 43 -4 48 -3 48 16 0 19 -6
21 -58 21 -52 0 -58 -2 -58 -21z"/>
<path d="M469 445 c0 0 -2 -8 -4 -17 -3 -17 15 -24 53 -19 7 1 12 -10 12 -29
0 -16 1 -31 1 -32 1 -2 7 -32 13 -68 9 -47 17 -66 29 -68 21 -4 22 27 3 113
-7 33 -11 66 -8 73 2 7 23 12 53 12 48 0 56 5 41 25 -5 7 -174 16 -193 10z"/>
<path d="M962 433 c-84 -41 -72 -152 22 -194 21 -9 45 -15 53 -12 7 3 19 0 27
-6 20 -16 32 5 35 60 3 54 -18 82 -56 77 -32 -4 -32 -20 1 -36 26 -13 31 -27
20 -55 -8 -22 -74 -4 -101 28 -48 55 -12 115 68 115 32 0 40 3 29 10 -13 9
-13 10 0 10 13 0 13 1 0 10 -22 14 -61 12 -98 -7z"/>
<path d="M1160 441 c0 -7 -4 -9 -10 -6 -11 7 -13 -10 -12 -90 1 -76 8 -127 21
-134 12 -8 121 -5 129 3 13 14 -15 26 -59 26 -32 0 -49 4 -50 13 -1 6 -2 51
-3 99 -1 48 -5 90 -9 94 -4 4 -7 2 -7 -5z"/>
<path d="M1760 435 c-13 -16 -12 -151 2 -178 13 -25 55 -50 70 -41 7 5 21 9
30 9 10 1 21 5 25 8 12 13 -8 21 -50 22 -40 0 -42 2 -45 33 -3 34 0 36 51 32
45 -3 34 27 -13 35 -33 6 -40 11 -40 30 0 22 5 24 55 27 45 2 53 6 45 18 -12
20 -114 24 -130 5z"/>
<path d="M1570 428 c-46 -12 -57 -24 -31 -33 13 -4 20 -14 20 -28 -1 -12 1
-46 4 -74 4 -31 2 -53 -4 -53 -20 0 -8 -19 19 -27 38 -13 103 -6 124 14 26 23
13 83 -18 83 -16 0 -18 12 -4 26 28 28 5 92 -33 95 -7 0 -19 2 -27 3 -8 2 -31
-1 -50 -6z m83 -48 c12 -11 -10 -50 -28 -50 -7 0 -16 -6 -18 -12 -3 -7 -6 -1
-7 15 -2 15 -3 33 -4 40 -1 6 -1 16 2 20 4 8 42 0 55 -13z m27 -105 c13 -16 2
-24 -46 -35 -33 -8 -34 -7 -34 24 0 31 2 32 35 28 19 -2 39 -10 45 -17z"/>
<path d="M345 420 c3 -5 11 -10 16 -10 5 0 20 -9 32 -21 32 -30 31 -113 -2
-140 -31 -25 -47 -24 -76 6 -32 31 -34 86 -5 115 11 11 15 20 9 20 -5 0 -7 5
-4 10 12 19 -22 10 -41 -11 -37 -41 -22 -142 26 -174 24 -16 92 -14 111 4 52
48 52 159 0 198 -19 15 -75 17 -66 3z"/>
<path d="M765 419 c4 -6 9 -8 12 -5 3 2 18 -9 35 -26 26 -27 29 -36 25 -76 -7
-76 -66 -107 -106 -56 -28 35 -27 87 1 114 21 19 21 20 2 20 -16 0 -17 2 -4
10 8 5 10 10 5 10 -24 0 -55 -33 -61 -66 -9 -50 19 -119 54 -132 87 -34 142
11 142 116 0 40 -5 54 -26 76 -26 26 -93 39 -79 15z"/>
<path d="M1410 410 c14 -11 28 -20 31 -20 4 0 12 -14 19 -31 24 -58 -15 -132
-65 -125 -50 7 -73 98 -35 136 18 18 18 20 3 20 -15 0 -16 2 -3 10 13 8 13 10
-2 10 -26 0 -58 -48 -58 -89 0 -57 30 -104 74 -115 50 -13 85 1 107 44 43 79
6 180 -64 180 l-32 0 25 -20z"/>
</g>
</svg>
